<svg width="15" height="9" viewBox="0 0 15 9" fill="none" xmlns="http://www.w3.org/2000/svg">
<path d="M14.1628 1.13543C12.3327 2.37416 10.943 3.33686 9.99445 4.02331C9.67638 4.2576 9.41835 4.44048 9.22019 4.57154C9.02203 4.70268 8.75848 4.8366 8.42918 4.97326C8.1 5.11011 7.79321 5.17834 7.50856 5.17834H7.50003H7.49161C7.20702 5.17834 6.90006 5.11011 6.57087 4.97326C6.24168 4.8366 5.97797 4.70268 5.77986 4.57154C5.58182 4.44048 5.3237 4.2576 5.00566 4.02331C4.25226 3.4709 2.86557 2.50814 0.84551 1.13543C0.527348 0.923521 0.245541 0.680619 0 0.407227V7.05324C0 7.42177 0.131082 7.73691 0.393393 7.99919C0.655645 8.26156 0.970992 8.3927 1.33932 8.3927H13.6608C14.029 8.3927 14.3443 8.26156 14.6066 7.99919C14.869 7.73683 15 7.4218 15 7.05324V0.407227C14.76 0.674961 14.4811 0.917863 14.1628 1.13543Z" fill="#FAFAFA"/>
</svg>
